#!OML:ASF E:\Style4\Style4.ASF
:FULLY-SPECIFIED
:DEGREES
1937
root 0.643809 16.3049 -0.349357 3.73102 -5.12731 5.34742
lowerback 16.0354 3.55098 -2.72506
upperback 7.22484 4.21907 -0.687049
thorax -1.43153 2.04833 0.0984391
lowerneck 6.55673 -3.14153 -4.67093
upperneck 5.06152 -4.48824 2.40549
head 0.642528 -2.30546 1.59022
rclavicle 1.07344e-014 -2.38542e-015
rhumerus -29.4751 17.4061 -61.3102
rradius 136.099
rwrist -72.6645
rhand 56.945 -2.55565
rfingers 7.12502
rthumb 73.6673 19.602
lclavicle 1.07344e-014 -2.38542e-015
lhumerus -20.2013 -14.1641 60.0262
lradius 141.02
lwrist 73.5505
lhand 35.0937 48.3888
lfingers 7.12502
lthumb 58.2188 63.9122
rfemur -34.971 -3.08482 11.3638
rtibia 64.3094
rfoot -28.7486 -19.066
rtoes -15.8513
lfemur -30.8321 0.876201 -27.2705
ltibia 60.1671
lfoot -32.4707 14.3528
ltoes -16.2463
1938
root 0.638472 16.3094 -0.350232 3.72863 -5.11261 5.31794
lowerback 16.012 3.54557 -2.71914
upperback 7.20572 4.21379 -0.681102
thorax -1.43948 2.04597 0.102934
lowerneck 6.57088 -3.14939 -4.7693
upperneck 5.00404 -4.5051 2.4118
head 0.625389 -2.31523 1.61049
rclavicle -3.33958e-014 -7.15625e-015
rhumerus -29.3579 17.5785 -61.252
rradius 136.078
rwrist -72.6779
rhand 56.877 -2.60137
rfingers 7.12502
rthumb 73.6408 19.3425
lclavicle -3.33958e-014 -7.15625e-015
lhumerus -20.1355 -14.2354 59.8574
lradius 141.017
lwrist 73.581
lhand 35.017 48.4712
lfingers 7.12502
lthumb 58.152 64.0554
rfemur -34.9301 -3.14604 11.4203
rtibia 64.2348
rfoot -28.6582 -19.1002
rtoes -16.0015
lfemur -30.8 0.871519 -27.2129
ltibia 60.1085
lfoot -32.4237 14.3735
ltoes -16.3362
1939
root 0.633915 16.3132 -0.351405 3.75083 -5.10918 5.26348
lowerback 15.9987 3.52473 -2.69547
upperback 7.16827 4.19008 -0.673872
thorax -1.47069 2.03499 0.100778
lowerneck 6.54309 -3.13251 -4.89258
upperneck 5.0194 -4.49106 2.49005
head 0.639264 -2.31037 1.65655
rclavicle 6.2816e-014 -3.49861e-014
rhumerus -29.2547 17.7329 -61.2132
rradius 136.046
rwrist -72.7465
rhand 56.7492 -2.66876
rfingers 7.12502
rthumb 73.5903 18.8758
lclavicle 6.2816e-014 -3.49861e-014
lhumerus -20.1534 -14.2398 59.7244
lradius 141.027
lwrist 73.6033
lhand 35.0056 48.4667
lfingers 7.12502
lthumb 58.1421 64.0599
rfemur -34.9228 -3.17263 11.504
rtibia 64.1498
rfoot -28.5356 -19.185
rtoes -16.0793
lfemur -30.8081 0.895488 -27.1307
ltibia 60.0691
lfoot -32.3967 14.422
ltoes -16.5581
1940
root 0.630699 16.3163 -0.352081 3.75742 -5.08259 5.20851
lowerback 16.0125 3.49644 -2.62241
upperback 7.14203 4.16259 -0.676444
thorax -1.50018 2.02317 0.0603631
lowerneck 6.50195 -3.13786 -4.82092
upperneck 5.07338 -4.4912 2.44005
head 0.660046 -2.30944 1.62647
rclavicle 6.99722e-014 -2.54444e-014
rhumerus -29.1871 17.8349 -61.1891
rradius 136.038
rwrist -72.7668
rhand 56.615 -2.57738
rfingers 7.12502
rthumb 73.5365 18.5506
lclavicle 6.99722e-014 -2.54444e-014
lhumerus -20.1421 -14.209 59.5839
lradius 141.065
lwrist 73.786
lhand 34.8426 48.4961
lfingers 7.12502
lthumb 57.9999 64.2176
rfemur -34.8782 -3.2302 11.5742
rtibia 64.0554
rfoot -28.4875 -19.1321
rtoes -15.8471
lfemur -30.8023 0.92345 -27.0517
ltibia 60.0426
lfoot -32.372 14.391
ltoes -16.7315
1941
root 0.625893 16.3195 -0.352451 3.74472 -5.04423 5.15732
lowerback 16.0528 3.48619 -2.55579
upperback 7.12037 4.1571 -0.670126
thorax -1.54027 2.02202 0.0275803
lowerneck 6.54138 -3.18048 -4.71047
upperneck 5.05599 -4.54091 2.36941
head 0.645469 -2.33236 1.58573
rclavicle 2.98177e-014 -5.56597e-015
rhumerus -29.156 17.8824 -61.209
rradius 136.002
rwrist -72.6878
rhand 56.5744 -2.43412
rfingers 7.12502
rthumb 73.52 18.5684
lclavicle 2.98177e-014 -5.56597e-015
lhumerus -20.1334 -14.2434 59.4878
lradius 141.086
lwrist 73.9348
lhand 34.6637 48.4038
lfingers 7.12502
lthumb 57.8438 64.2646
rfemur -34.8177 -3.27708 11.6427
rtibia 63.9802
rfoot -28.5088 -19.0318
rtoes -15.7048
lfemur -30.7716 0.946535 -26.9652
ltibia 60.0173
lfoot -32.3586 14.2929
ltoes -16.6845
1942
root 0.61947 16.322 -0.353166 3.72819 -5.02636 5.13415
lowerback 16.0604 3.47199 -2.58121
upperback 7.1031 4.13451 -0.665045
thorax -1.56417 2.01047 0.0498903
lowerneck 6.68934 -3.19341 -4.60252
upperneck 4.88617 -4.55486 2.27766
head 0.563274 -2.33704 1.54223
rclavicle -1.43125e-014 1.90833e-014
rhumerus -29.1619 17.9372 -61.253
rradius 135.992
rwrist -72.6756
rhand 56.6897 -2.40952
rfingers 7.12502
rthumb 73.5666 18.9502
lclavicle -1.43125e-014 1.90833e-014
lhumerus -20.1775 -14.3308 59.435
lradius 141.155
lwrist 74.1522
lhand 34.1386 48.4775
lfingers 7.12502
lthumb 57.3842 64.7389
rfemur -34.7779 -3.29883 11.6985
rtibia 63.9483
rfoot -28.513 -19.0105
rtoes -15.6572
lfemur -30.741 0.974283 -26.9081
ltibia 59.9909
lfoot -32.3257 14.2562
ltoes -16.7328
1943
root 0.614382 16.3237 -0.352766 3.70218 -5.00089 5.15792
lowerback 16.0245 3.44956 -2.6401
upperback 7.10789 4.09799 -0.67893
thorax -1.54222 1.99135 0.0768982
lowerneck 6.74539 -3.17945 -4.54208
upperneck 4.7992 -4.53322 2.21041
head 0.522847 -2.32495 1.51196
rclavicle -1.03368e-014 3.97569e-015
rhumerus -29.1968 17.9816 -61.3438
rradius 135.999
rwrist -72.71
rhand 56.7828 -2.45232
rfingers 7.12502
rthumb 73.6037 19.197
lclavicle -1.03368e-014 3.97569e-015
lhumerus -20.2648 -14.3692 59.3883
lradius 141.246
lwrist 74.3446
lhand 33.6201 48.6603
lfingers 7.12502
lthumb 56.9288 65.3055
rfemur -34.7308 -3.36815 11.7018
rtibia 63.9513
rfoot -28.5343 -18.9956
rtoes -15.6133
lfemur -30.6909 0.977621 -26.9132
ltibia 59.9607
lfoot -32.3044 14.2586
ltoes -16.8484
1944
root 0.609834 16.324 -0.353602 3.70073 -4.94492 5.1558
lowerback 15.9899 3.42199 -2.65005
upperback 7.10581 4.06209 -0.681573
thorax -1.52597 1.97342 0.0878713
lowerneck 6.81627 -3.16594 -4.6875
upperneck 4.76658 -4.5299 2.32787
head 0.507127 -2.32587 1.57686
rclavicle 2.74323e-014 7.95139e-016
rhumerus -29.2347 17.9703 -61.4373
rradius 136.002
rwrist -72.7258
rhand 56.6733 -2.53854
rfingers 7.12502
rthumb 73.56 18.7702
lclavicle 2.74323e-014 7.95139e-016
lhumerus -20.355 -14.3356 59.3644
lradius 141.17
lwrist 74.1579
lhand 33.9105 48.4226
lfingers 7.12502
lthumb 57.1841 64.8542
rfemur -34.7062 -3.4683 11.7413
rtibia 63.9674
rfoot -28.5364 -19.0623
rtoes -15.9814
lfemur -30.6835 0.958373 -26.8884
ltibia 59.9512
lfoot -32.2926 14.2496
ltoes -16.8225
